# xmcd
#
# Track frame offsets: 
#        150
#        9835
#        21637
#        33922
#        47097
#        61982
#        73207
#        84287
#        98827
#        111265
#        123220
#        133205
#        146270
#        158322
#        173900
#        182312
#        191600
#        203637
#        217867
#        231545
#        245690
#        257875
#        268910
#        280425
#        292900
#        304840
#        314815
#        329562
#        344532
#
# Disc length: 4797 seconds
#
# Revision: 0
# Processed by: cddbd v1.5.1PL0 Copyright (c) Steve Scherf et al.
# Submitted via: ExactAudioCopy v0.95a4
#
DISCID=b412bb1d
DTITLE=Willie Nelson - Nashville Was The Roughest... - Disc 4
DYEAR=1900
DGENRE=Country
TTITLE0=Someday You'll Call My Name
TTITLE1=Wild Memories
TTITLE2=December Day
TTITLE3=Pages
TTITLE4=Little Things
TTITLE5=Good Times
TTITLE6=She's Still Gone
TTITLE7=Sweet Memories
TTITLE8=Johnny One Time
TTITLE9=Jimmy's Road
TTITLE10=Bring Me Sunshine
TTITLE11=I Let My Mind Wander
TTITLE12=I Just Don't Understand
TTITLE13=I Just Dropped By
TTITLE14=The Local Memory
TTITLE15=Natural To Be Gone
TTITLE16=Love Has A Mind Of It's Own
TTITLE17=I'll Walk Alone
TTITLE18=It Will Come To Pass
TTITLE19=Me Own Perculiar Way
TTITLE20=The Message
TTITLE21=That's All
TTITLE22=Any Old Arms Won't Do
TTITLE23=Johnny One Time
TTITLE24=Jimmy's Road
TTITLE25=Bring Me Sunshine
TTITLE26=Bloody Merry Morning
TTITLE27=Pins And Needles (In My Heart)
TTITLE28=Everybody's Talkin'
EXTD=
EXTT0=
EXTT1=
EXTT2=
EXTT3=
EXTT4=
EXTT5=
EXTT6=
EXTT7=
EXTT8=
EXTT9=
EXTT10=
EXTT11=
EXTT12=
EXTT13=
EXTT14=
EXTT15=
EXTT16=
EXTT17=
EXTT18=
EXTT19=
EXTT20=
EXTT21=
EXTT22=
EXTT23=
EXTT24=
EXTT25=
EXTT26=
EXTT27=
EXTT28=
PLAYORDER=
